<svg width="22" height="22" viewBox="0 0 22 22" fill="none" xmlns="http://www.w3.org/2000/svg">
<path d="M11 1.83333C5.94916 1.83333 1.83333 5.94916 1.83333 11C1.83333 16.0508 5.94916 20.1667 11 20.1667C16.0508 20.1667 20.1667 16.0508 20.1667 11C20.1667 5.94916 16.0508 1.83333 11 1.83333ZM14.9875 14.2725C14.8592 14.4925 14.63 14.6117 14.3917 14.6117C14.2725 14.6117 14.1533 14.5842 14.0433 14.5108L11.2017 12.815C10.4958 12.3933 9.97333 11.4675 9.97333 10.6517V6.89333C9.97333 6.51749 10.285 6.20583 10.6608 6.20583C11.0367 6.20583 11.3483 6.51749 11.3483 6.89333V10.6517C11.3483 10.9817 11.6233 11.4675 11.9075 11.6325L14.7492 13.3283C15.0792 13.5208 15.1892 13.9425 14.9875 14.2725Z" fill="#8F9DBF"/>
</svg>
