<svg width="16" height="16" viewBox="0 0 16 16" fill="none" xmlns="http://www.w3.org/2000/svg">
<path d="M7.99998 1.33333C9.81131 1.33333 10.0373 1.33999 10.748 1.37333C11.458 1.40666 11.9413 1.51799 12.3666 1.68333C12.8066 1.85266 13.1773 2.08199 13.548 2.45199C13.887 2.78526 14.1493 3.18839 14.3166 3.63333C14.4813 4.05799 14.5933 4.54199 14.6266 5.25199C14.658 5.96266 14.6666 6.18866 14.6666 8C14.6666 9.81133 14.66 10.0373 14.6266 10.748C14.5933 11.458 14.4813 11.9413 14.3166 12.3667C14.1498 12.8118 13.8874 13.2151 13.548 13.548C13.2146 13.8869 12.8115 14.1492 12.3666 14.3167C11.942 14.4813 11.458 14.5933 10.748 14.6267C10.0373 14.658 9.81131 14.6667 7.99998 14.6667C6.18865 14.6667 5.96265 14.66 5.25198 14.6267C4.54198 14.5933 4.05865 14.4813 3.63331 14.3167C3.1882 14.1496 2.785 13.8873 2.45198 13.548C2.11292 13.2148 1.8506 12.8116 1.68331 12.3667C1.51798 11.942 1.40665 11.458 1.37331 10.748C1.34198 10.0373 1.33331 9.81133 1.33331 8C1.33331 6.18866 1.33998 5.96266 1.37331 5.25199C1.40665 4.54133 1.51798 4.05866 1.68331 3.63333C1.85014 3.18811 2.11252 2.78488 2.45198 2.45199C2.78509 2.11282 3.18827 1.85048 3.63331 1.68333C4.05865 1.51799 4.54131 1.40666 5.25198 1.37333C5.96265 1.34199 6.18865 1.33333 7.99998 1.33333ZM7.99998 4.66666C7.11592 4.66666 6.26808 5.01785 5.64296 5.64297C5.01784 6.26809 4.66665 7.11594 4.66665 8C4.66665 8.88405 5.01784 9.7319 5.64296 10.357C6.26808 10.9821 7.11592 11.3333 7.99998 11.3333C8.88403 11.3333 9.73188 10.9821 10.357 10.357C10.9821 9.7319 11.3333 8.88405 11.3333 8C11.3333 7.11594 10.9821 6.26809 10.357 5.64297C9.73188 5.01785 8.88403 4.66666 7.99998 4.66666ZM12.3333 4.49999C12.3333 4.27898 12.2455 4.06702 12.0892 3.91074C11.933 3.75446 11.721 3.66666 11.5 3.66666C11.279 3.66666 11.067 3.75446 10.9107 3.91074C10.7544 4.06702 10.6666 4.27898 10.6666 4.49999C10.6666 4.72101 10.7544 4.93297 10.9107 5.08925C11.067 5.24553 11.279 5.33333 11.5 5.33333C11.721 5.33333 11.933 5.24553 12.0892 5.08925C12.2455 4.93297 12.3333 4.72101 12.3333 4.49999ZM7.99998 6C8.53041 6 9.03912 6.21071 9.41419 6.58578C9.78927 6.96085 9.99998 7.46956 9.99998 8C9.99998 8.53043 9.78927 9.03914 9.41419 9.41421C9.03912 9.78928 8.53041 10 7.99998 10C7.46955 10 6.96084 9.78928 6.58577 9.41421C6.21069 9.03914 5.99998 8.53043 5.99998 8C5.99998 7.46956 6.21069 6.96085 6.58577 6.58578C6.96084 6.21071 7.46955 6 7.99998 6Z" fill="#EBEBEB"/>
</svg>
