<svg width="16" height="16" viewBox="0 0 16 16" fill="none" xmlns="http://www.w3.org/2000/svg">
<path d="M12.2427 11.576L8 15.8187L3.75734 11.576C2.91823 10.7369 2.34679 9.6678 2.11529 8.50392C1.88378 7.34003 2.0026 6.13364 2.45673 5.03729C2.91086 3.94093 3.6799 3.00387 4.66659 2.34458C5.65328 1.6853 6.81332 1.3334 8 1.3334C9.18669 1.3334 10.3467 1.6853 11.3334 2.34458C12.3201 3.00387 13.0891 3.94093 13.5433 5.03729C13.9974 6.13364 14.1162 7.34003 13.8847 8.50392C13.6532 9.6678 13.0818 10.7369 12.2427 11.576ZM8 8.66669C8.35362 8.66669 8.69276 8.52621 8.94281 8.27616C9.19286 8.02611 9.33334 7.68697 9.33334 7.33335C9.33334 6.97973 9.19286 6.64059 8.94281 6.39054C8.69276 6.1405 8.35362 6.00002 8 6.00002C7.64638 6.00002 7.30724 6.1405 7.05719 6.39054C6.80715 6.64059 6.66667 6.97973 6.66667 7.33335C6.66667 7.68697 6.80715 8.02611 7.05719 8.27616C7.30724 8.52621 7.64638 8.66669 8 8.66669Z" fill="white"/>
</svg>
