<svg width="16" height="16" viewBox="0 0 16 16" fill="none" xmlns="http://www.w3.org/2000/svg">
<path d="M8.87332 13.6C7.99178 13.7377 7.09019 13.6653 6.24193 13.3886C5.39367 13.112 4.62271 12.639 3.99182 12.0081C3.36092 11.3772 2.88791 10.6063 2.6113 9.758C2.33469 8.90974 2.26228 8.00815 2.39998 7.12662C2.05247 6.46563 1.92549 5.71081 2.03759 4.9725C2.14969 4.23418 2.495 3.55108 3.02306 3.02302C3.55111 2.49497 4.23421 2.14966 4.97253 2.03756C5.71084 1.92546 6.46566 2.05244 7.12665 2.39995C8.00818 2.26225 8.90977 2.33466 9.75803 2.61127C10.6063 2.88788 11.3773 3.36089 12.0081 3.99179C12.639 4.62268 13.1121 5.39364 13.3887 6.2419C13.6653 7.09016 13.7377 7.99175 13.6 8.87329C13.9475 9.53428 14.0745 10.2891 13.9624 11.0274C13.8503 11.7657 13.505 12.4488 12.9769 12.9769C12.4489 13.5049 11.7658 13.8502 11.0274 13.9623C10.2891 14.0744 9.53431 13.9475 8.87332 13.6ZM8.03465 11.4373H8.00798C9.92265 11.4373 10.8766 10.5133 10.8766 9.27529C10.8766 8.47662 10.5093 7.62795 9.05932 7.30329L7.73732 7.00995C7.23398 6.89529 6.65598 6.74329 6.65598 6.26662C6.65598 5.78995 7.06932 5.45795 7.80532 5.45795C9.29198 5.45795 9.15665 6.47662 9.89265 6.47662C10.2766 6.47662 10.6213 6.24862 10.6213 5.85662C10.6213 4.94329 9.15665 4.25662 7.91732 4.25662C6.56998 4.25662 5.13532 4.82929 5.13532 6.35262C5.13532 7.08462 5.39798 7.86595 6.84198 8.22795L8.63465 8.67529C9.17865 8.80995 9.31332 9.11462 9.31332 9.38995C9.31332 9.84795 8.85732 10.2953 8.03465 10.2953C6.42332 10.2953 6.64932 9.05729 5.78532 9.05729C5.39865 9.05729 5.11665 9.32262 5.11665 9.70462C5.11665 10.4473 6.01798 11.4366 8.03465 11.4366V11.4373Z" fill="#EBEBEB"/>
</svg>
