<svg width="25" height="25" viewBox="0 0 25 25" fill="none" xmlns="http://www.w3.org/2000/svg">
<path d="M22.9167 11.1979C23.3438 11.1979 23.6979 10.8438 23.6979 10.4167V9.375C23.6979 4.78126 22.3021 3.38542 17.7083 3.38542H11.1979V5.72917C11.1979 6.15626 10.8438 6.51042 10.4167 6.51042C9.98958 6.51042 9.63542 6.15626 9.63542 5.72917V3.38542H7.29167C2.69792 3.38542 1.30208 4.78126 1.30208 9.375V9.89584C1.30208 10.3229 1.65625 10.6771 2.08333 10.6771C3.08333 10.6771 3.90625 11.5 3.90625 12.5C3.90625 13.5 3.08333 14.3229 2.08333 14.3229C1.65625 14.3229 1.30208 14.6771 1.30208 15.1042V15.625C1.30208 20.2188 2.69792 21.6146 7.29167 21.6146H9.63542V19.2708C9.63542 18.8438 9.98958 18.4896 10.4167 18.4896C10.8438 18.4896 11.1979 18.8438 11.1979 19.2708V21.6146H17.7083C22.3021 21.6146 23.6979 20.2188 23.6979 15.625C23.6979 15.1979 23.3438 14.8438 22.9167 14.8438C21.9167 14.8438 21.0938 14.0208 21.0938 13.0208C21.0938 12.0208 21.9167 11.1979 22.9167 11.1979ZM11.1979 14.7604C11.1979 15.1875 10.8438 15.5417 10.4167 15.5417C9.98958 15.5417 9.63542 15.1875 9.63542 14.7604V10.2396C9.63542 9.8125 9.98958 9.45834 10.4167 9.45834C10.8438 9.45834 11.1979 9.8125 11.1979 10.2396V14.7604Z" fill="white"/>
</svg>
