<svg width="16" height="16" viewBox="0 0 16 16" fill="none" xmlns="http://www.w3.org/2000/svg">
<path d="M8.00001 14.6667C4.31801 14.6667 1.33334 11.682 1.33334 8C1.33334 4.318 4.31801 1.33333 8.00001 1.33333C11.682 1.33333 14.6667 4.318 14.6667 8C14.6667 11.682 11.682 14.6667 8.00001 14.6667ZM12.2367 10.6347V10.5647C12.2367 9.95 12.2367 9.66933 11.802 9.42066C11.6623 9.34146 11.5188 9.26915 11.372 9.20399C11.1273 9.09266 10.9653 9.02 10.7467 8.7C10.7206 8.662 10.6948 8.62377 10.6693 8.58533C10.4393 8.23533 10.2733 7.98333 9.64134 8.08333C8.39801 8.28066 8.30601 8.49933 8.25134 8.86866L8.24268 8.92933C8.16201 9.46933 8.14734 9.65066 8.37268 9.88733C9.21601 10.772 9.72134 11.41 9.87468 11.7833C9.94934 11.9653 10.1413 12.5167 10.0093 13.062C10.8186 12.7397 11.5389 12.2283 12.11 11.5707C12.1833 11.3213 12.2367 11.0107 12.2367 10.6347ZM8.00001 2.55533C6.45534 2.55533 5.06001 3.19933 4.06934 4.23266C4.18734 4.31466 4.29001 4.42999 4.36068 4.58866C4.49668 4.89333 4.49668 5.20733 4.49668 5.48533C4.49668 5.70399 4.49668 5.912 4.56668 6.062C4.66268 6.26733 5.07734 6.35533 5.44334 6.43133C5.57468 6.45933 5.70934 6.48733 5.83201 6.52133C6.16934 6.61466 6.43068 6.91799 6.63934 7.16133C6.72601 7.26199 6.85468 7.41066 6.91934 7.448C6.95268 7.424 7.06001 7.30733 7.11268 7.11599C7.15401 6.96933 7.14201 6.84 7.08268 6.76933C6.70934 6.32933 6.73001 5.48266 6.84534 5.17C7.02668 4.67733 7.59334 4.71399 8.00801 4.74066C8.16268 4.75066 8.30801 4.76066 8.41734 4.74666C8.83201 4.69466 8.96001 4.06333 9.05001 3.93999C9.24468 3.67333 9.84068 3.27133 10.21 3.02333C9.51434 2.71399 8.76135 2.55453 8.00001 2.55533Z" fill="white"/>
</svg>
