<svg width="16" height="16" viewBox="0 0 16 16" fill="none" xmlns="http://www.w3.org/2000/svg">
<path d="M14.362 4.33201C14.6667 5.52 14.6667 8 14.6667 8C14.6667 8 14.6667 10.48 14.362 11.668C14.1927 12.3247 13.6974 12.8413 13.07 13.016C11.9307 13.3333 8.00004 13.3333 8.00004 13.3333C8.00004 13.3333 4.07137 13.3333 2.93004 13.016C2.30004 12.8387 1.80537 12.3227 1.63804 11.668C1.33337 10.48 1.33337 8 1.33337 8C1.33337 8 1.33337 5.52 1.63804 4.33201C1.80737 3.67534 2.30271 3.15867 2.93004 2.984C4.07137 2.66667 8.00004 2.66667 8.00004 2.66667C8.00004 2.66667 11.9307 2.66667 13.07 2.984C13.7 3.16134 14.1947 3.67734 14.362 4.33201ZM6.66671 10.3333L10.6667 8L6.66671 5.66667V10.3333Z" fill="white"/>
</svg>
