<svg width="60" height="60" viewBox="0 0 60 60" fill="none" xmlns="http://www.w3.org/2000/svg">
<path d="M52.2499 24.625L53.725 49.35C53.775 50.025 53.4499 50.475 53.2749 50.675C53.0749 50.9 52.65 51.25 51.95 51.25H45.1249L50.5249 24.625H52.2499ZM55 15L54.975 15.05C55.025 15.65 54.975 16.275 54.825 16.9L36.4 50.725C35.8 53.25 33.55 55 30.95 55H51.95C55.175 55 57.725 52.275 57.475 49.05L55 15Z" fill="#B8C2D9"/>
<path d="M28.625 5.59999C28.875 4.59999 28.25 3.57499 27.25 3.32499C26.25 3.09999 25.225 3.69999 24.975 4.69999L23.725 9.87499H27.575L28.625 5.59999Z" fill="#B8C2D9"/>
<path d="M45.1249 5.52489C45.3499 4.49989 44.6999 3.52489 43.6749 3.29989C42.675 3.07489 41.675 3.72489 41.45 4.74989L40.325 9.92489H44.175L45.1249 5.52489Z" fill="#B8C2D9"/>
<path d="M54.55 13.3251C53.725 11.3251 51.775 9.9001 49.375 9.9001H44.175L42.775 16.3751C42.575 17.2501 41.8 17.8501 40.95 17.8501C40.825 17.8501 40.675 17.8501 40.55 17.8001C39.55 17.5751 38.9 16.5751 39.1 15.5751L40.325 9.8751H27.575L26 16.3751C25.8 17.2251 25.025 17.8001 24.175 17.8001C24.025 17.8001 23.875 17.7751 23.725 17.7501C22.725 17.5001 22.1 16.5001 22.35 15.4751L23.7 9.8501H18.625C16.175 9.8501 14 11.4501 13.275 13.8001L2.75 47.6751C1.65 51.3001 4.325 55.0001 8.1 55.0001H40.95C43.55 55.0001 45.8 53.2501 46.4 50.7251L54.825 16.9001C54.975 16.2751 55.025 15.6501 54.975 15.0501C54.925 14.4501 54.8 13.8501 54.55 13.3251ZM36.75 41.8751H16.75C15.725 41.8751 14.875 41.0251 14.875 40.0001C14.875 38.9751 15.725 38.1251 16.75 38.1251H36.75C37.775 38.1251 38.625 38.9751 38.625 40.0001C38.625 41.0251 37.775 41.8751 36.75 41.8751ZM39.25 31.8751H19.25C18.225 31.8751 17.375 31.0251 17.375 30.0001C17.375 28.9751 18.225 28.1251 19.25 28.1251H39.25C40.275 28.1251 41.125 28.9751 41.125 30.0001C41.125 31.0251 40.275 31.8751 39.25 31.8751Z" fill="#B8C2D9"/>
</svg>
