<svg width="25" height="25" viewBox="0 0 25 25" fill="none" xmlns="http://www.w3.org/2000/svg">
<path d="M12.5 4.84375C7.52083 4.84375 3.46875 8.89583 3.46875 13.875C3.46875 18.8542 7.52083 22.9167 12.5 22.9167C17.4792 22.9167 21.5312 18.8646 21.5312 13.8854C21.5312 8.90625 17.4792 4.84375 12.5 4.84375ZM13.2812 13.5417C13.2812 13.9688 12.9271 14.3229 12.5 14.3229C12.0729 14.3229 11.7187 13.9688 11.7187 13.5417V8.33333C11.7187 7.90625 12.0729 7.55208 12.5 7.55208C12.9271 7.55208 13.2812 7.90625 13.2812 8.33333V13.5417Z" fill="#46AEEF"/>
<path d="M15.5104 3.59367H9.48956C9.0729 3.59367 8.73956 3.26034 8.73956 2.84367C8.73956 2.427 9.0729 2.08325 9.48956 2.08325H15.5104C15.9271 2.08325 16.2604 2.41659 16.2604 2.83325C16.2604 3.24992 15.9271 3.59367 15.5104 3.59367Z" fill="#46AEEF"/>
</svg>
