<svg width="60" height="60" viewBox="0 0 60 60" fill="none" xmlns="http://www.w3.org/2000/svg">
<path fill-rule="evenodd" clip-rule="evenodd" d="M12.4782 0.153703C10.7998 0.446412 9.25256 1.40683 8.39811 2.6861C7.45239 4.10193 6.95239 6.61885 7.29914 8.21778C8.17507 12.2563 13.3351 14.3286 20.5076 13.5225C25.1669 12.9989 27.7448 11.9208 28.6741 10.1072C29.0127 9.44653 29.05 9.2769 28.9922 8.66394C28.9021 7.71009 28.4278 6.90769 27.3182 5.83239C25.7805 4.34224 23.8241 3.07926 21.0772 1.8034C17.6609 0.216653 15.0211 -0.289873 12.4782 0.153703ZM44.0218 0.146904C41.3774 0.597983 38.5047 1.78664 35.6475 3.61181C31.7642 6.09239 30.4538 8.05261 31.3463 10.0459C32.158 11.8588 35.1941 13.0968 40.005 13.5768C43.4604 13.9216 46.9845 13.4695 49.2508 12.3908C51.8551 11.1514 53.2181 8.72138 52.8362 5.99873C52.409 2.95337 50.7753 0.963839 48.1188 0.254282C47.2264 0.0158478 45.1144 -0.039482 44.0218 0.146904ZM15.2912 4.60798C16.2103 4.69637 17.8677 5.22751 19.1355 5.83989C21.0646 6.77171 23.3844 8.25975 23.1938 8.44285C22.9916 8.63709 20.8166 8.99721 19.2012 9.104C15.5921 9.34267 12.7001 8.74236 12.0174 7.61279C11.7972 7.24857 11.7891 7.14542 11.9215 6.40362C12.0902 5.45774 12.3246 4.96892 12.706 4.76706C13.0096 4.60634 13.9436 4.45524 14.3214 4.50565C14.4556 4.52358 14.8921 4.56953 15.2912 4.60798ZM46.8487 4.60552C47.6483 4.73025 48.1798 5.63346 48.1798 6.86736C48.1798 7.45547 48.14 7.54937 47.7206 7.95251C46.7761 8.85982 44.1467 9.31019 40.9595 9.11044C39.6185 9.02651 37.0007 8.62185 36.8478 8.47509C36.7396 8.371 37.1702 8.02272 38.3012 7.29921C40.6087 5.82336 43.1101 4.79988 44.9819 4.56578C45.7867 4.46509 45.9735 4.46907 46.8487 4.60552ZM1.75149 16.0258C1.14631 16.29 0.583106 16.8189 0.277466 17.4101C0.0630903 17.8249 0.0434464 18.2207 0.0116012 22.7734C-0.0257346 28.1167 -0.0110932 28.2606 0.657656 29.103C0.835427 29.327 1.26186 29.6447 1.60508 29.8091L2.22917 30.1079H14.6271C25.142 30.1079 27.0611 30.0825 27.2619 29.9415C27.4917 29.7801 27.4987 29.5714 27.4987 23.0149V16.2547L27.2107 16.0307C26.9313 15.8132 26.5529 15.8066 14.5824 15.8091C2.89499 15.8116 2.21624 15.823 1.75149 16.0258ZM32.6932 16.1154C32.4441 16.4195 32.4402 16.5255 32.4402 22.9572C32.4402 29.3889 32.4441 29.4949 32.6932 29.799L32.946 30.1079H45.3584H57.7708L58.3949 29.8091C58.7381 29.6447 59.1646 29.327 59.3423 29.103C60.0111 28.2606 60.0257 28.1167 59.9884 22.7734C59.9566 18.2207 59.9369 17.8249 59.7225 17.4101C59.4169 16.8189 58.8537 16.29 58.2485 16.0258C57.7836 15.8229 57.1029 15.8116 45.3519 15.8091L32.946 15.8065L32.6932 16.1154ZM5.44053 33.4387C4.67857 33.6368 4.0258 34.1555 3.64586 34.8648L3.34034 35.4353V46.6919V57.9486L3.60364 58.4175C3.94845 59.0313 4.43259 59.4617 5.10951 59.7561C5.64844 59.9904 5.85745 59.9948 16.4233 59.9974L27.1881 60L27.3755 59.7251C27.5417 59.4815 27.5593 57.9999 27.5308 46.6579L27.4987 33.8655L27.2208 33.5986L26.943 33.3315L16.4837 33.3091C8.24315 33.2915 5.90076 33.319 5.44053 33.4387ZM33.0527 33.4234C32.4227 33.7297 32.444 33.2614 32.4421 46.8416C32.4402 59.376 32.4432 59.5339 32.6843 59.7656C32.9246 59.9965 33.0891 60 43.6349 59.9974C54.1422 59.9948 54.3517 59.9904 54.8905 59.7561C55.5674 59.4617 56.0516 59.0313 56.3964 58.4175L56.6597 57.9486V46.6919V35.4353L56.3479 34.8534C55.9578 34.125 55.2111 33.5677 54.4017 33.4009C53.4528 33.2054 33.4578 33.2265 33.0527 33.4234Z" fill="#B8C2D9"/>
</svg>
