<svg width="60" height="60" viewBox="0 0 60 60" fill="none" xmlns="http://www.w3.org/2000/svg">
<path d="M18.1 5H13.35C7.875 5 5 7.875 5 13.325V18.075C5 23.525 7.875 26.4 13.325 26.4H18.075C23.525 26.4 26.4 23.525 26.4 18.075V13.325C26.425 7.875 23.55 5 18.1 5Z" fill="#B8C2D9"/>
<path d="M46.675 5H41.925C36.475 5 33.6 7.875 33.6 13.325V18.075C33.6 23.525 36.475 26.4 41.925 26.4H46.675C52.125 26.4 55 23.525 55 18.075V13.325C55 7.875 52.125 5 46.675 5Z" fill="#B8C2D9"/>
<path d="M46.675 33.575H41.925C36.475 33.575 33.6 36.45 33.6 41.9V46.65C33.6 52.1 36.475 54.9749 41.925 54.9749H46.675C52.125 54.9749 55 52.1 55 46.65V41.9C55 36.45 52.125 33.575 46.675 33.575Z" fill="#B8C2D9"/>
<path d="M18.1 33.575H13.35C7.875 33.575 5 36.45 5 41.9V46.65C5 52.125 7.875 55 13.325 55H18.075C23.525 55 26.4 52.125 26.4 46.675V41.925C26.425 36.45 23.55 33.575 18.1 33.575Z" fill="#B8C2D9"/>
</svg>
