<svg width="60" height="60" viewBox="0 0 60 60" fill="none" xmlns="http://www.w3.org/2000/svg">
<path fill-rule="evenodd" clip-rule="evenodd" d="M56.2985 0.264479C55.5493 0.599566 55.5318 0.622547 53.835 3.50116C51.9892 6.63255 52.0991 6.31705 52.6421 6.92321C53.1876 7.53218 53.9678 9.06177 54.1857 9.94967C54.2727 10.3043 54.3458 11.0793 54.348 11.6719C54.3502 12.2646 54.3612 12.7394 54.3723 12.7271C54.5754 12.5056 59.7994 3.42765 59.9077 3.10804C60.0874 2.57809 60.0017 1.90263 59.6772 1.29202C59.389 0.749758 59.1299 0.525936 58.4446 0.227312C57.7226 -0.0872581 57.0592 -0.075768 56.2985 0.264479ZM45.3906 6.04926C43.6515 6.3623 41.77 7.90748 41.1046 9.56944C40.767 10.4127 40.6563 11.9532 40.8677 12.8658C41.8544 17.1254 47.3569 18.7466 50.6348 15.7435C51.7317 14.7386 52.2195 13.8324 52.468 12.338C52.9131 9.66195 50.9407 6.84676 48.1278 6.14305C47.4547 5.97469 46.0689 5.92721 45.3906 6.04926ZM34.9488 15.2992C34.6802 15.394 26.8252 20.0723 17.4931 25.6955C1.09234 35.5781 0.516307 35.9371 0.243119 36.4472C-0.121985 37.1287 -0.0727916 37.9104 0.369948 38.4647C0.539622 38.6771 2.85293 41.1275 5.51058 43.9102C9.67956 48.275 10.4182 48.9972 10.8916 49.1709C11.5377 49.408 12.0914 49.3427 12.6789 48.9603C13.0464 48.7211 40.1371 16.8503 40.1363 16.6582C40.1358 16.5574 38.3114 15.5453 37.6687 15.2893C37.0952 15.0608 35.6092 15.0663 34.9488 15.2992ZM28.0225 33.843C20.2681 43.0069 14.0697 50.2306 13.8235 50.3909C12.8883 50.9999 11.6392 51.2393 10.7191 50.9859L10.2942 50.8687L8.09536 53.0516C6.88616 54.2522 5.76949 55.436 5.61397 55.6824C4.41417 57.5834 6.18037 60.2031 8.51637 59.9875C9.70263 59.878 9.82433 59.774 16.5625 53.109L22.9559 46.7852L25.9708 42.3206C27.6291 39.8651 29.021 37.8222 29.0641 37.7808C29.1393 37.7085 30.8595 38.6277 30.8595 38.7401C30.8595 38.8452 32.2052 46.9426 32.2649 47.1968C32.3159 47.4144 31.7497 47.9116 28.5101 50.4938C24.1216 53.9914 24.0668 54.0401 23.7519 54.7171C23.0119 56.3073 23.9336 58.184 25.6971 58.678C26.6045 58.9322 27.4967 58.7776 28.307 58.2259C28.6152 58.0161 30.9003 56.2211 33.3852 54.2369C38.1728 50.4142 38.4381 50.1507 38.612 49.0444C38.6595 48.7426 38.4513 47.1976 38.0124 44.5957L37.3401 40.6094L38.7435 38.3377C39.5153 37.0884 40.1265 36.0467 40.1016 36.0227C40.0767 35.9988 39.3741 35.9315 38.5401 35.8731C36.8466 35.7547 36.3474 35.5988 35.6079 34.9571C34.8168 34.2705 34.4698 33.5105 34.4648 32.4531C34.4606 31.5973 34.5054 31.4574 35.7333 28.4972C36.4332 26.8093 37.03 25.4515 37.0594 25.4797C37.0889 25.5079 36.9072 26.9531 36.6558 28.6911C36.385 30.5632 36.2307 32.0149 36.2771 32.2526C36.4135 32.9504 36.9955 33.6879 37.651 33.9934C38.2182 34.2578 38.44 34.2769 42.639 34.4239C45.056 34.5084 47.647 34.5629 48.3967 34.5451C49.6927 34.5143 49.786 34.495 50.2877 34.156C51.1075 33.6021 51.384 33.046 51.3396 32.0399C51.2916 30.9462 50.8985 30.3359 49.9847 29.9353C49.3921 29.6755 49.1213 29.6499 45.6297 29.5226C43.582 29.4481 41.8858 29.3683 41.8604 29.3455C41.8349 29.3226 41.9701 28.1965 42.1609 26.8428C42.3517 25.4892 42.5237 24.3969 42.5432 24.4155C42.5626 24.4343 42.6233 25.1746 42.6778 26.0607C42.7513 27.2519 42.8229 27.6996 42.9523 27.7783C43.0486 27.8368 43.5942 27.8847 44.1649 27.8848L45.2025 27.885L46.1434 26.3298C47.4059 24.2432 47.5042 24.0035 47.4988 23.0225C47.4938 22.07 47.2457 21.3393 46.7094 20.697C46.503 20.4497 46.3815 20.206 46.4396 20.1554C46.4977 20.1048 46.9297 19.8169 47.3997 19.5157L48.2541 18.968L47.3384 19.045C45.7073 19.1821 43.7625 18.7262 42.4803 17.9063C42.1917 17.7216 41.917 17.5727 41.87 17.5752C41.823 17.5777 35.5917 24.8982 28.0225 33.843Z" fill="#B8C2D9"/>
</svg>
