<svg width="55" height="60" viewBox="0 0 55 60" fill="none" xmlns="http://www.w3.org/2000/svg">
<path fill-rule="evenodd" clip-rule="evenodd" d="M18.8189 0.124049C18.1142 0.511661 18.1267 1.06313 18.8736 2.56037C19.5005 3.81686 19.7676 4.09101 20.3651 4.09101C20.8395 4.09101 21.3242 3.61795 21.3242 3.15509C21.3242 2.7002 20.2421 0.540377 19.8644 0.241493C19.514 -0.0357082 19.1778 -0.0734497 18.8189 0.124049ZM35.2155 0.13366C34.8907 0.290955 33.6758 2.66797 33.6758 3.14583C33.6758 3.64925 34.154 4.09101 34.6987 4.09101C35.2781 4.09101 35.4805 3.86948 36.1688 2.48172C36.8669 1.07462 36.8823 0.498885 36.231 0.160149C35.8477 -0.0392244 35.5865 -0.0460226 35.2155 0.13366ZM26.7222 1.22582C26.5186 1.33037 26.2756 1.50361 26.182 1.61074C26.0884 1.71775 25.4046 3.09144 24.6626 4.66323C23.9206 6.23501 23.2264 7.61761 23.1202 7.73576C22.7906 8.10204 22.052 8.29204 19.518 8.6623C18.1721 8.85898 16.8481 9.07816 16.5756 9.14931C15.9676 9.30824 15.3109 9.99568 15.2002 10.5891C15.0243 11.5318 15.1297 11.6957 17.5156 14.1898C18.982 15.7225 19.8251 16.6974 19.9662 17.0232L20.1814 17.52L19.6486 20.8031C19.0521 24.479 19.0554 24.6278 19.7486 25.3036C20.097 25.6433 20.2551 25.7082 20.8361 25.7505L21.516 25.8L24.2458 24.2936C26.5991 22.995 27.048 22.7872 27.5 22.7866C27.9539 22.7861 28.3769 22.9824 30.6462 24.2475C33.2617 25.7055 33.2699 25.709 34.048 25.7127C34.782 25.716 34.8528 25.6922 35.2436 25.3111C35.9449 24.6274 35.9486 24.4831 35.3549 20.8243C34.8918 17.9706 34.8433 17.5083 34.9675 17.1299C35.067 16.8263 35.7979 15.9737 37.4147 14.2749C39.8698 11.6951 39.9757 11.5319 39.8018 10.5995C39.7119 10.1173 39.2627 9.54595 38.7736 9.2916C38.5805 9.19115 37.121 8.90926 35.5305 8.66523C33.5915 8.36775 32.5119 8.14928 32.2541 8.00218C31.8483 7.77057 31.4327 7.01211 29.6818 3.30699C29.1043 2.08485 28.7995 1.57487 28.5326 1.3837C28.0615 1.04625 27.2151 0.972412 26.7222 1.22582ZM39.5021 3.16669C39.1381 3.31133 38.1412 4.27772 37.9199 4.7005C37.6715 5.17496 37.7174 5.47854 38.0948 5.85818C38.6614 6.42793 39.0301 6.34167 39.9829 5.41641C40.4272 4.98497 40.8213 4.50921 40.8587 4.35918C40.9664 3.92797 40.6756 3.37931 40.2432 3.19752C40.032 3.10879 39.8444 3.03952 39.8263 3.04351C39.8082 3.04761 39.6623 3.10305 39.5021 3.16669ZM14.4461 3.44952C14.2615 3.64714 14.1695 3.88507 14.1695 4.16438C14.1695 4.52867 14.2763 4.68761 14.9947 5.3918C15.6417 6.02602 15.895 6.20078 16.1676 6.20078C16.6164 6.20078 17.0911 5.82161 17.186 5.38746C17.2871 4.92402 17.0535 4.5091 16.2735 3.76704C15.7231 3.24358 15.5619 3.15333 15.1756 3.15333C14.842 3.15333 14.65 3.23128 14.4461 3.44952ZM7.3721 13.7315C7.23856 13.8765 6.84226 14.6098 6.4914 15.3608C6.10034 16.1978 5.74657 16.794 5.57761 16.901C5.42601 16.9968 4.65146 17.17 3.85641 17.2854C2.16225 17.5316 1.8178 17.7262 1.8178 18.4377C1.8178 18.8226 1.93269 18.9839 2.93528 20.0058C3.54995 20.6325 4.11242 21.2628 4.18524 21.4069C4.28849 21.611 4.26355 21.9847 4.07175 23.1064C3.76668 24.8907 3.76121 25.2759 4.03761 25.5425C4.48075 25.9697 4.68024 25.9293 6.33269 25.0766C8.1548 24.1363 7.88865 24.1336 9.65436 25.1113C11.101 25.9122 11.1268 25.9202 11.5966 25.7227C12.1522 25.4893 12.1915 25.1856 11.8991 23.3892C11.7611 22.5417 11.6493 21.7519 11.6504 21.6341C11.6516 21.5164 12.2031 20.8455 12.8761 20.1433C13.965 19.007 14.0996 18.8205 14.0996 18.4474C14.0996 17.7201 13.7848 17.5317 12.1769 17.296C10.1117 16.9931 10.2362 17.083 9.38321 15.2773C8.95311 14.367 8.5511 13.6717 8.41092 13.5964C8.03396 13.3934 7.63556 13.4452 7.3721 13.7315ZM46.4608 13.674C46.3588 13.7873 45.9659 14.5398 45.5875 15.3461C45.0932 16.3995 44.8203 16.8485 44.6174 16.9415C44.462 17.0127 43.6905 17.1666 42.9029 17.2835C41.242 17.53 40.9004 17.7286 40.9004 18.4472C40.9004 18.8205 41.0347 19.0066 42.1239 20.1433C42.7969 20.8455 43.348 21.5164 43.3489 21.6341C43.3497 21.7519 43.2344 22.5707 43.0929 23.4537C42.804 25.2552 42.8527 25.5428 43.484 25.7642C43.8949 25.9083 43.9175 25.9001 45.4902 25.0331C46.1911 24.6466 46.8952 24.3382 47.0633 24.3439C47.2307 24.3495 47.9656 24.6826 48.6964 25.0841C50.0392 25.8214 50.5173 25.9465 50.8693 25.6527C51.229 25.3522 51.244 25.0324 50.9759 23.3793C50.7871 22.2153 50.743 21.6592 50.8222 21.4453C50.8835 21.2802 51.4237 20.6439 52.0228 20.0315C53.1795 18.8491 53.3255 18.6 53.1438 18.1191C52.9617 17.6375 52.5865 17.4824 51.0964 17.2728C50.3273 17.1646 49.5755 16.9983 49.4255 16.9033C49.2576 16.7969 48.8868 16.1609 48.4593 15.2457C48.0778 14.429 47.6792 13.6949 47.5735 13.6143C47.2944 13.4016 46.6761 13.4347 46.4608 13.674ZM3.5172 31.2349C3.15621 31.4892 0 37.8477 0 38.3208C0 38.5443 0.10732 38.7865 0.28607 38.9661L0.572023 39.2539L11.0355 39.2501C19.1943 39.2472 21.5409 39.2143 21.6893 39.1007C22.0043 38.8596 25.1695 32.3852 25.1695 31.9821C25.1695 31.7455 25.065 31.5266 24.8612 31.3366L24.5528 31.0492H14.1667C4.87962 31.0492 3.75282 31.0689 3.5172 31.2349ZM30.1388 31.3366C29.935 31.5266 29.8305 31.7455 29.8305 31.9821C29.8305 32.3852 32.9957 38.8596 33.3107 39.1007C33.4591 39.2143 35.8057 39.2472 43.9645 39.2501L54.428 39.2539L54.7139 38.9661C54.8927 38.7865 55 38.5443 55 38.3208C55 37.8477 51.8438 31.4892 51.4828 31.2349C51.2472 31.0689 50.1204 31.0492 40.8333 31.0492H30.4472L30.1388 31.3366ZM24.9346 37.5007C23.4817 40.4322 23.1119 40.9893 22.4527 41.2393C22.2315 41.3231 19.1465 41.3637 12.985 41.3637H3.84534V50.3392V59.3148L4.18594 59.6574L4.52655 60H15.4889H26.4513V47.2828C26.4513 40.2883 26.4373 34.5655 26.4203 34.5655C26.4033 34.5655 25.7346 35.8863 24.9346 37.5007ZM28.555 47.2535L28.5487 60H39.5111H50.4735L50.8141 59.6574L51.1547 59.3148V50.3392V41.3637H42.0037C32.0557 41.3637 32.4204 41.3872 31.7938 40.7041C31.624 40.5189 30.827 39.0488 30.0231 37.4371L28.5613 34.5069L28.555 47.2535Z" fill="#B8C2D9"/>
</svg>
