<svg width="25" height="25" viewBox="0 0 25 25" fill="none" xmlns="http://www.w3.org/2000/svg">
<path d="M16.927 23.4376C17.9338 23.4376 18.75 22.6214 18.75 21.6147C18.75 20.6079 17.9338 19.7917 16.927 19.7917C15.9203 19.7917 15.1041 20.6079 15.1041 21.6147C15.1041 22.6214 15.9203 23.4376 16.927 23.4376Z" fill="#292D32"/>
<path d="M8.59379 23.4376C9.60056 23.4376 10.4167 22.6214 10.4167 21.6147C10.4167 20.6079 9.60056 19.7917 8.59379 19.7917C7.58702 19.7917 6.77087 20.6079 6.77087 21.6147C6.77087 22.6214 7.58702 23.4376 8.59379 23.4376Z" fill="#292D32"/>
<path d="M5.04171 4.10409L4.83337 6.65617C4.79171 7.14575 5.17712 7.552 5.66671 7.552H21.6146C22.0521 7.552 22.4167 7.21867 22.448 6.78117C22.5834 4.93742 21.1771 3.43742 19.3334 3.43742H6.53129C6.42712 2.97909 6.21879 2.54159 5.89587 2.177C5.37504 1.62492 4.64587 1.302 3.89587 1.302H2.08337C1.65629 1.302 1.30212 1.65617 1.30212 2.08325C1.30212 2.51034 1.65629 2.8645 2.08337 2.8645H3.89587C4.21879 2.8645 4.52087 2.99992 4.73962 3.22909C4.95837 3.46867 5.06254 3.78117 5.04171 4.10409Z" fill="#292D32"/>
<path d="M21.3646 9.1145H5.38543C4.94793 9.1145 4.59376 9.44783 4.5521 9.87492L4.1771 14.4062C4.03126 16.1874 5.4271 17.7082 7.20835 17.7082H18.7917C20.3542 17.7082 21.7292 16.427 21.8438 14.8645L22.1875 9.99992C22.2292 9.52075 21.8542 9.1145 21.3646 9.1145Z" fill="#292D32"/>
</svg>
